<svg width="6" height="10" viewBox="0 0 6 10" fill="none" xmlns="http://www.w3.org/2000/svg">
<path d="M6 5.00073C6.00011 5.09462 5.98074 5.1876 5.94301 5.27433C5.90528 5.36107 5.84992 5.43984 5.78013 5.50613L1.27758 9.79524C1.13643 9.92728 0.946258 10.0009 0.748434 10C0.55061 9.99917 0.361144 9.92393 0.22126 9.79068C0.0813756 9.65743 0.0023932 9.47694 0.00149732 9.2885C0.000601446 9.10005 0.0778647 8.91889 0.216476 8.78444L4.18843 5.00073L0.216431 1.21702C0.0771802 1.08269 -0.00062441 0.901327 3.36375e-06 0.712538C0.000631138 0.523749 0.0796403 0.342863 0.219781 0.209372C0.359922 0.0758791 0.549813 0.000623679 0.747997 3.33459e-05C0.946181 -0.000556033 1.13656 0.0735664 1.27758 0.206222L5.78013 4.49533C5.84992 4.56162 5.90528 4.64039 5.94301 4.72713C5.98074 4.81386 6.00011 4.90684 6 5.00073Z" fill="white"/>
</svg>
