<svg width="10" height="9" viewBox="0 0 10 9" fill="none" xmlns="http://www.w3.org/2000/svg">
<path fill-rule="evenodd" clip-rule="evenodd" d="M5.08898 0.859139C5.32467 0.622719 5.70533 0.622719 5.94103 0.859139L9.13902 4.06701C9.37695 4.30567 9.37695 4.69433 9.13902 4.933L5.94111 8.14086C5.82287 8.25937 5.66843 8.31819 5.51508 8.31819C5.36175 8.31819 5.20729 8.25941 5.08908 8.14088C4.85114 7.90221 4.85113 7.51354 5.08906 7.27487L7.24688 5.11032H1.33102C1.00093 5.11032 0.726562 4.84081 0.726562 4.5C0.726562 4.15915 1.00093 3.88968 1.33102 3.88968H7.24687L5.08898 1.72513C4.85105 1.48646 4.85105 1.09781 5.08898 0.859139Z" fill="white"/>
</svg>
