<svg width="9" height="14" viewBox="0 0 9 14" fill="none" xmlns="http://www.w3.org/2000/svg">
<path d="M6.56953 0H1.95679C1.43793 0.000376393 0.940434 0.206658 0.573546 0.573546C0.206658 0.940434 0.000376393 1.43793 0 1.95679V11.5432C0.000376393 12.0621 0.206658 12.5596 0.573546 12.9265C0.940434 13.2933 1.43793 13.4996 1.95679 13.5H6.56953C7.08838 13.4996 7.58588 13.2933 7.95277 12.9265C8.31966 12.5596 8.52594 12.0621 8.52632 11.5432V1.95679C8.52594 1.43793 8.31966 0.940434 7.95277 0.573546C7.58588 0.206658 7.08838 0.000376393 6.56953 0ZM7.81579 11.5432C7.81504 11.8735 7.6835 12.1901 7.44994 12.4236C7.21638 12.6572 6.89983 12.7887 6.56953 12.7895H1.95679C1.62649 12.7887 1.30993 12.6572 1.07638 12.4236C0.84282 12.1901 0.711277 11.8735 0.710526 11.5432V1.95679C0.711277 1.62649 0.84282 1.30993 1.07638 1.07638C1.30993 0.84282 1.62649 0.711277 1.95679 0.710526H6.56953C6.89983 0.711277 7.21638 0.84282 7.44994 1.07638C7.6835 1.30993 7.81504 1.62649 7.81579 1.95679V11.5432Z" fill="white"/>
<path d="M5.61386 11.1552H2.91386C2.81964 11.1552 2.72927 11.1927 2.66265 11.2593C2.59602 11.3259 2.55859 11.4163 2.55859 11.5105C2.55859 11.6047 2.59602 11.6951 2.66265 11.7617C2.72927 11.8283 2.81964 11.8658 2.91386 11.8658H5.61386C5.70808 11.8658 5.79844 11.8283 5.86507 11.7617C5.93169 11.6951 5.96912 11.6047 5.96912 11.5105C5.96912 11.4163 5.93169 11.3259 5.86507 11.2593C5.79844 11.1927 5.70808 11.1552 5.61386 11.1552Z" fill="white"/>
</svg>
