<svg width="24" height="24" viewBox="0 0 24 24" fill="none" xmlns="http://www.w3.org/2000/svg">
<path d="M7.47371 10.2301H22.0557C23.03 10.2301 23.8419 11.042 23.8419 12.0163C23.8419 12.9906 23.03 13.8025 22.0557 13.8025H7.47371C6.49941 13.8025 5.6875 12.9906 5.6875 12.0163C5.6875 11.0095 6.46694 10.2301 7.47371 10.2301Z" fill="#427CA5"/>
<path d="M13.7706 0H22.0196C22.9939 0 23.8058 0.811913 23.8058 1.78621C23.8058 2.7605 22.9939 3.57242 22.0196 3.57242H13.7706C12.7963 3.57242 11.9844 2.7605 11.9844 1.78621C11.9844 0.811913 12.7963 0 13.7706 0Z" fill="#427CA5"/>
<path d="M1.78621 20.4276H22.0516C23.0259 20.4276 23.8378 21.2395 23.8378 22.2138C23.8378 23.1881 23.0259 24 22.0516 24H1.78621C0.811913 24 0 23.1881 0 22.2138C0 21.2395 0.779436 20.4276 1.78621 20.4276Z" fill="#427CA5"/>
</svg>
