<svg width="14" height="10" viewBox="0 0 14 10" fill="none" xmlns="http://www.w3.org/2000/svg">
<path d="M1.33333 0C0.600432 0 0 0.60043 0 1.33333V8.66667C0 9.39957 0.600432 10 1.33333 10H12.6667C13.3996 10 14 9.39957 14 8.66667V1.33333C14 0.60043 13.3996 0 12.6667 0H1.33333ZM1.33333 0.666667H12.6667C12.7604 0.666667 12.847 0.685555 12.9271 0.71875L7.47917 5.45311C7.17579 5.71657 6.81328 5.71658 6.51042 5.45311L1.07292 0.71875C1.153 0.685555 1.23956 0.666667 1.33333 0.666667ZM0.677083 1.26042L6.07292 5.95311C6.60357 6.41475 7.38589 6.41401 7.91667 5.95311L13.3229 1.26042C13.3255 1.28492 13.3333 1.30801 13.3333 1.33333V8.66667C13.3333 9.04177 13.0418 9.33333 12.6667 9.33333H1.33333C0.958233 9.33333 0.666667 9.04177 0.666667 8.66667V1.33333C0.666667 1.30801 0.674483 1.28492 0.677083 1.26042Z" fill="white"/>
</svg>
