<svg width="15" height="15" viewBox="0 0 15 15" fill="none" xmlns="http://www.w3.org/2000/svg">
<path d="M12.6883 2.38889C11.3085 1.01389 9.46878 0.250001 7.52685 0.250001C3.48969 0.250001 0.219071 3.50926 0.219071 7.53241C0.219071 8.80556 0.576796 10.0787 1.19004 11.1481L0.167969 14.9167L4.05183 13.8981C5.125 14.4583 6.30037 14.7639 7.52685 14.7639C11.564 14.7639 14.8346 11.5046 14.8346 7.48148C14.7835 5.59722 14.0681 3.76389 12.6883 2.38889ZM11.053 10.1296C10.8997 10.537 10.1842 10.9444 9.8265 10.9954C9.51988 11.0463 9.11106 11.0463 8.70223 10.9444C8.44671 10.8426 8.08899 10.7407 7.68016 10.537C5.84044 9.77315 4.66507 7.93982 4.56286 7.78704C4.46065 7.68519 3.79631 6.81945 3.79631 5.90278C3.79631 4.98611 4.25624 4.5787 4.40955 4.375C4.56286 4.1713 4.76727 4.1713 4.92058 4.1713C5.02279 4.1713 5.1761 4.1713 5.2783 4.1713C5.38051 4.1713 5.53382 4.12037 5.68713 4.47685C5.84044 4.83333 6.19816 5.75 6.24927 5.80093C6.30037 5.90278 6.30037 6.00463 6.24927 6.10648C6.19816 6.20833 6.14706 6.31019 6.04485 6.41204C5.94265 6.51389 5.84044 6.66667 5.78934 6.71759C5.68713 6.81945 5.58493 6.9213 5.68713 7.07407C5.78934 7.27778 6.14706 7.83796 6.7092 8.34722C7.42465 8.95833 7.98678 9.16204 8.1912 9.26389C8.39561 9.36574 8.49782 9.31482 8.60002 9.21296C8.70223 9.11111 9.05996 8.70371 9.16216 8.5C9.26437 8.2963 9.41768 8.34722 9.57099 8.39815C9.7243 8.44908 10.6442 8.90741 10.7975 9.00926C11.0019 9.11111 11.1041 9.16204 11.1552 9.21296C11.2063 9.36574 11.2063 9.72222 11.053 10.1296Z" fill="#162D4F"/>
</svg>
