<svg width="16" height="12" viewBox="0 0 16 12" fill="none" xmlns="http://www.w3.org/2000/svg">
<path d="M1.09153 0C0.599843 0 0.180265 0.322372 0.0460286 0.759407L7.6906 7.21143C7.87086 7.36331 8.13167 7.36331 8.31116 7.21143L15.955 0.759407C15.8207 0.322372 15.4011 0 14.9095 0H1.09153ZM0 1.65654V10.3435L5.1462 5.99925L0 1.65654ZM16 1.65654L10.8546 6.00001L16 10.3427V1.65654ZM5.70074 6.46754L0.04595 11.2399C0.180185 11.6776 0.599765 12 1.09145 12H14.9092C15.4009 12 15.8205 11.6769 15.9547 11.2399L10.3007 6.46754L8.78808 7.74437C8.33858 8.12408 7.66203 8.12408 7.21255 7.74437L5.70074 6.46754Z" fill="white"/>
</svg>
