<svg width="27" height="19" viewBox="0 0 27 19" fill="none" xmlns="http://www.w3.org/2000/svg">
<path d="M2.57143 0C1.15798 0 0 1.14082 0 2.53333V16.4667C0 17.8592 1.15798 19 2.57143 19H24.4286C25.842 19 27 17.8592 27 16.4667V2.53333C27 1.14082 25.842 0 24.4286 0H2.57143ZM2.57143 1.26667H24.4286C24.6094 1.26667 24.7764 1.30255 24.9308 1.36563L14.4241 10.3609C13.839 10.8615 13.1399 10.8615 12.5558 10.3609L2.0692 1.36563C2.22364 1.30255 2.39058 1.26667 2.57143 1.26667ZM1.3058 2.39479L11.7121 11.3109C12.7354 12.188 14.2442 12.1866 15.2679 11.3109L25.6942 2.39479C25.6992 2.44134 25.7143 2.48521 25.7143 2.53333V16.4667C25.7143 17.1794 25.152 17.7333 24.4286 17.7333H2.57143C1.84802 17.7333 1.28571 17.1794 1.28571 16.4667V2.53333C1.28571 2.48521 1.30079 2.44134 1.3058 2.39479Z" fill="#162D4F"/>
</svg>
