<svg width="13" height="13" viewBox="0 0 13 13" fill="none" xmlns="http://www.w3.org/2000/svg">
<path d="M2.78571 5.57143C4.32148 5.57143 5.57143 4.32148 5.57143 2.78571C5.57143 1.24995 4.32148 0 2.78571 0C1.24995 0 0 1.24995 0 2.78571C0 4.32148 1.24995 5.57143 2.78571 5.57143ZM2.78571 1.11429C3.70703 1.11429 4.45714 1.8644 4.45714 2.78571C4.45714 3.70703 3.70703 4.45714 2.78571 4.45714C1.8644 4.45714 1.11429 3.70703 1.11429 2.78571C1.11429 1.8644 1.8644 1.11429 2.78571 1.11429ZM10.2143 7.42857C8.67852 7.42857 7.42857 8.67852 7.42857 10.2143C7.42857 11.7501 8.67852 13 10.2143 13C11.7501 13 13 11.7501 13 10.2143C13 8.67852 11.7501 7.42857 10.2143 7.42857ZM10.2143 11.8857C9.29297 11.8857 8.54285 11.1356 8.54285 10.2143C8.54285 9.29297 9.29297 8.54286 10.2143 8.54286C11.1356 8.54286 11.8857 9.29297 11.8857 10.2143C11.8857 11.1356 11.1356 11.8857 10.2143 11.8857ZM12.8368 0.951058L0.951057 12.8368C0.842244 12.9456 0.700054 13 0.557143 13C0.414232 13 0.272042 12.9456 0.163228 12.8368C-0.0544069 12.6191 -0.0544069 12.2666 0.163228 12.0489L12.0489 0.163228C12.2666 -0.0544069 12.6191 -0.0544069 12.8368 0.163228C13.0544 0.380863 13.0544 0.733423 12.8368 0.951058Z" fill="black"/>
</svg>
