<svg width="14" height="22" viewBox="0 0 14 22" fill="none" xmlns="http://www.w3.org/2000/svg">
<path d="M10.7263 0H3.38004C2.55371 0.00059944 1.7614 0.329123 1.1771 0.913425C0.592794 1.49773 0.264271 2.29004 0.263672 3.11637V18.3836C0.264271 19.21 0.592794 20.0023 1.1771 20.5866C1.7614 21.1709 2.55371 21.4994 3.38004 21.5H10.7263C11.5526 21.4994 12.3449 21.1709 12.9292 20.5866C13.5135 20.0023 13.842 19.21 13.8426 18.3836V3.11637C13.842 2.29004 13.5135 1.49773 12.9292 0.913425C12.3449 0.329123 11.5526 0.00059944 10.7263 0ZM12.711 18.3836C12.7098 18.9097 12.5003 19.4138 12.1284 19.7858C11.7564 20.1577 11.2523 20.3672 10.7263 20.3684H3.38004C2.85401 20.3672 2.34986 20.1577 1.9779 19.7858C1.60594 19.4138 1.39645 18.9097 1.39525 18.3836V3.11637C1.39645 2.59034 1.60594 2.08619 1.9779 1.71423C2.34986 1.34227 2.85401 1.13277 3.38004 1.13158H10.7263C11.2523 1.13277 11.7564 1.34227 12.1284 1.71423C12.5003 2.08619 12.7098 2.59034 12.711 3.11637V18.3836Z" fill="#162D4F"/>
<path d="M9.20368 17.7657H4.90368C4.75362 17.7657 4.60971 17.8254 4.50361 17.9315C4.3975 18.0376 4.33789 18.1815 4.33789 18.3315C4.33789 18.4816 4.3975 18.6255 4.50361 18.7316C4.60971 18.8377 4.75362 18.8973 4.90368 18.8973H9.20368C9.35374 18.8973 9.49765 18.8377 9.60375 18.7316C9.70986 18.6255 9.76947 18.4816 9.76947 18.3315C9.76947 18.1815 9.70986 18.0376 9.60375 17.9315C9.49765 17.8254 9.35374 17.7657 9.20368 17.7657Z" fill="#162D4F"/>
</svg>
