<svg width="14" height="14" viewBox="0 0 14 14" fill="none" xmlns="http://www.w3.org/2000/svg">
<path d="M7 14C10.8571 14 14 10.92 14 7.14C14 5.95 13.6786 4.76 13.0714 3.7275L12.9107 3.465L12.3571 3.78L12.5179 4.0425C13.0714 4.9875 13.3571 6.055 13.3571 7.14C13.3571 10.5875 10.5 13.3875 6.98214 13.3875C3.46429 13.3875 0.607143 10.5875 0.607143 7.14C0.607143 3.6925 3.46429 0.8925 6.98214 0.8925C7.76786 0.8925 8.51786 1.0325 9.23214 1.3125L8.78572 2.065L11.2321 2.1L10.0536 0L9.58929 0.77C8.76786 0.455 7.89286 0.28 7 0.28C3.14286 0.28 0 3.36 0 7.14C0 10.92 3.14286 14 7 14Z" fill="black"/>
<path d="M7 3C4.79104 3 3 4.79104 3 7C3 9.20896 4.79104 11 7 11C9.20895 11 11 9.20896 11 7C11 4.79104 9.20895 3 7 3ZM8.77612 8.77612C8.71642 8.8209 8.65672 8.85075 8.58209 8.85075C8.50746 8.85075 8.44776 8.8209 8.38806 8.77612L6.80597 7.19403C6.77612 7.16418 6.76119 7.13433 6.74627 7.10448C6.74627 7.08955 6.73134 7.07463 6.73134 7.07463C6.71642 7.0597 6.71642 7.02985 6.71642 7.01493V4.35821C6.71642 4.20896 6.83582 4.08955 6.98507 4.08955C7.13433 4.08955 7.25373 4.20896 7.25373 4.35821V6.8806L8.76119 8.38806C8.8806 8.50746 8.8806 8.67164 8.77612 8.77612Z" fill="black"/>
</svg>
