<svg width="46" height="44" viewBox="0 0 46 44" fill="none" xmlns="http://www.w3.org/2000/svg">
<path d="M0 28.3821H29.0509V27.0751C29.0509 25.6893 27.9173 24.5506 26.5306 24.5506H2.52034C1.13362 24.5506 0 25.6893 0 27.0751V28.3821ZM29.0509 32.6344H0V41.4755C0 42.8613 1.13362 44 2.52034 44H26.5306C27.9173 44 29.0509 42.8613 29.0509 41.4755V32.6344ZM0 31.779H29.0509V29.2332H0V31.779ZM18.5516 15.9758L13.2855 10.7009C10.7322 13.397 9.13173 17.009 9.02326 21.0067H16.4748C16.5737 19.0734 17.3425 17.3222 18.5516 15.9758ZM13.8874 10.097L19.1535 15.375C20.4977 14.1607 22.246 13.3916 24.173 13.2915V5.82981C20.2 5.93633 16.5854 7.53945 13.8874 10.097ZM40.1745 21.8578H32.7379V34.7445C37.2469 31.9729 40.032 27.1358 40.1745 21.8578ZM30.0453 15.375L35.3114 10.097C32.6166 7.53945 29.0052 5.93633 25.0227 5.83088V13.2915C26.9528 13.3906 28.7011 14.1607 30.0453 15.375ZM35.9144 10.7009L30.645 15.9758C31.8988 17.3712 32.6252 19.1309 32.7251 21.0067H40.1734C40.0681 17.0175 38.4677 13.4033 35.9144 10.7009ZM5.85422 11.0812C4.22609 14.0307 3.27432 17.4074 3.20201 21.0056H5.16192C5.23104 17.7632 6.0903 14.7221 7.54933 12.0623L5.85422 11.0812ZM24.173 0C16.5949 0.151258 9.96546 4.25119 6.27959 10.3441L7.97364 11.3251C11.3192 5.8149 17.3181 2.10696 24.173 1.95889V0ZM41.223 31.5351C39.2514 34.7903 36.3302 37.4597 32.7368 39.1225V41.2603C37.0746 39.4729 40.5956 36.3657 42.9171 32.5161L41.223 31.5351ZM41.6484 12.0623C44.8377 17.8686 44.8494 24.9522 41.6484 30.798L43.3425 31.779C46.8933 25.3261 46.8784 17.4937 43.3425 11.0812L41.6484 12.0623ZM24.5983 19.8829C23.7455 19.8829 23.0553 20.5774 23.0553 21.4317C23.0553 22.286 23.7455 22.9773 24.5983 22.9773C25.4512 22.9773 26.1446 22.286 26.1446 21.4317C26.1446 20.5774 25.4512 19.8829 24.5983 19.8829ZM26.3349 19.7775L26.6242 17.1411L24.7738 19.0372C25.3853 19.083 25.9361 19.3578 26.3349 19.7775ZM2.93615 40.3783C2.37891 40.3783 2.37891 39.5272 2.93615 39.5272H9.37206C9.93249 39.5272 9.93249 40.3783 9.37206 40.3783H2.93615ZM11.2958 40.3783C10.7386 40.3783 10.7386 39.5272 11.2958 39.5272H12.7123C13.2727 39.5272 13.2727 40.3783 12.7123 40.3783H11.2958ZM2.93615 37.9785C2.37891 37.9785 2.37891 37.1274 2.93615 37.1274H15.8112C16.3684 37.1274 16.3684 37.9785 15.8112 37.9785H2.93615ZM24.2814 37.5226C23.8476 37.5226 23.4403 37.6823 23.1212 37.9753C22.9617 38.1233 22.7107 38.1265 22.5459 37.9753C21.458 36.9729 19.6736 37.7398 19.6736 39.2375C19.6736 40.7352 21.4612 41.5021 22.5459 40.4966C22.7086 40.3485 22.9585 40.3453 23.1212 40.4966C24.2091 41.5021 25.9936 40.7352 25.9936 39.2375C25.9936 38.2895 25.2279 37.5226 24.2814 37.5226ZM24.2814 36.6715C25.6979 36.6715 26.8433 37.8187 26.8433 39.2375C26.8433 41.3114 24.5165 42.5109 22.8341 41.3541C21.1517 42.5109 18.8218 41.3114 18.8218 39.2375C18.8218 37.1604 21.1517 35.9642 22.8341 37.121C23.2595 36.828 23.7667 36.6715 24.2814 36.6715ZM25.0258 1.95889C31.8925 2.10696 37.8828 5.82129 41.2252 11.3251L42.9192 10.3473C39.2387 4.25758 32.6156 0.150192 25.0258 0V1.95889Z" fill="#162D4F"/>
</svg>
