<svg width="32" height="44" viewBox="0 0 32 44" fill="none" xmlns="http://www.w3.org/2000/svg">
<path d="M20.9758 20.0652L18.0781 26.2771L24.423 30.9358C25.5577 31.7693 25.6858 32.9099 25.4272 33.699C25.2302 34.3013 24.7217 34.9251 23.8696 35.1911C28.2638 34.4622 31.7466 33.0884 31.7466 31.0374C31.7466 19.2512 27.4243 25.0729 20.9758 20.0652Z" fill="#162D4F"/>
<path d="M6.31945 33.6338C6.06083 32.8447 6.18843 31.7041 7.32364 30.8706L13.669 26.2114L10.7708 20C4.32232 25.0077 0 19.186 0 30.9723C0 33.0232 3.4824 34.397 7.87707 35.1259C7.02541 34.86 6.51647 34.2361 6.31945 33.6338Z" fill="#162D4F"/>
<path d="M17.1201 23.9741L17.7488 22.4732C17.7488 22.0371 17.3665 21.6836 16.8952 21.6836H15.8725H14.8497C14.3789 21.6836 13.9961 22.0376 13.9961 22.4732L14.6248 23.9741C14.6581 24.2635 14.7773 24.4737 14.9568 24.6052L14.5886 25.7302C14.9895 25.5654 15.4251 25.4691 15.8725 25.4691C16.3198 25.4691 16.7549 25.5654 17.1558 25.7302L16.7877 24.6052C16.9676 24.4742 17.0864 24.2635 17.1201 23.9741Z" fill="#162D4F"/>
<path d="M8.93979 13.3336C10.1791 16.7099 12.8309 19.898 15.9046 19.898C18.9812 19.898 21.6349 16.7011 22.8738 13.3209C23.3519 13.1786 23.853 12.2722 24.0574 11.114C24.2789 9.85563 24.0691 8.75757 23.5881 8.57765C23.5656 8.16894 23.5274 7.75533 23.4707 7.34271C23.2766 3.78355 22.1898 2.19269 20.5833 1.48331C19.4456 0.570051 17.9232 0 15.9046 0C13.8908 0 12.3743 0.555384 11.241 1.44859C9.47122 2.19171 8.31352 3.96151 8.24703 8.16014C8.23627 8.29361 8.22747 8.42561 8.21965 8.55859C7.69507 8.66126 7.45649 9.80087 7.68822 11.114C7.90236 12.328 8.44259 13.2627 8.93979 13.3336Z" fill="#162D4F"/>
<path d="M16.6206 40.6688C16.8499 40.6688 17.0371 40.481 17.0371 40.2517V34.4207C17.0371 34.1914 16.8499 34.0042 16.6206 34.0042H15.1236C14.8943 34.0042 14.707 34.1914 14.707 34.4207V40.2517C14.707 40.481 14.8943 40.6688 15.1236 40.6688H16.6206Z" fill="#162D4F"/>
<path d="M12.2089 40.6688C12.4377 40.6688 12.625 40.481 12.625 40.2517V34.4207C12.625 34.1914 12.4377 34.0042 12.2089 34.0042H10.7115C10.4827 34.0042 10.2949 34.1914 10.2949 34.4207V40.2517C10.2949 40.481 10.4822 40.6688 10.7115 40.6688H12.2089Z" fill="#162D4F"/>
<path d="M21.0346 40.6688C21.2634 40.6688 21.4517 40.481 21.4517 40.2517V34.4207C21.4517 34.1914 21.2634 34.0042 21.0346 34.0042H19.5371C19.3088 34.0042 19.1211 34.1914 19.1211 34.4207V40.2517C19.1211 40.481 19.3088 40.6688 19.5371 40.6688H21.0346Z" fill="#162D4F"/>
<path d="M23.1422 32.6781L16.5445 27.8331C16.1754 27.5618 15.5707 27.5618 15.2016 27.8331L8.60246 32.6781C8.23383 32.9499 8.30619 33.1714 8.76477 33.1714H22.9808C23.4394 33.1714 23.5113 32.9494 23.1422 32.6781Z" fill="#162D4F"/>
<path d="M9.37695 41.9178V42.1255C9.37695 42.3553 9.5642 42.5426 9.79349 42.5426H21.9528C22.1821 42.5426 22.3693 42.3553 22.3693 42.1255V41.9178C22.3693 41.6885 22.1821 41.5007 21.9528 41.5007H9.79349C9.5642 41.5012 9.37695 41.6885 9.37695 41.9178Z" fill="#162D4F"/>
<path d="M23.3988 42.9592H8.34818C8.11938 42.9592 7.93164 43.1465 7.93164 43.3758V43.584C7.93164 43.8133 8.11938 44.0011 8.34818 44.0011H23.3988C23.6271 44.0011 23.8148 43.8133 23.8148 43.584V43.3758C23.8144 43.1465 23.6266 42.9592 23.3988 42.9592Z" fill="#162D4F"/>
</svg>
