<svg width="49" height="44" viewBox="0 0 49 44" fill="none" xmlns="http://www.w3.org/2000/svg">
<path d="M6.84016 18.1602C5.58354 18.1602 4.44942 18.9295 3.96931 20.1056C3.48722 21.2838 3.75395 22.6402 4.64304 23.5418C5.53215 24.4434 6.86975 24.7139 8.02956 24.225C9.19134 23.7381 9.95005 22.5881 9.95005 21.3138C9.9461 19.5727 8.55711 18.1642 6.84016 18.1602ZM8.79423 20.885L6.8441 22.8626H6.84608C6.61491 23.095 6.24346 23.095 6.01231 22.8626L4.88609 21.7185C4.66282 21.4841 4.66677 21.1134 4.89399 20.883C5.12121 20.6526 5.48674 20.6506 5.71789 20.875L6.42916 21.5963L7.96235 20.0415V20.0435C8.07102 19.9273 8.22315 19.8612 8.37925 19.8612C8.53731 19.8592 8.68945 19.9213 8.80207 20.0355C8.91271 20.1477 8.97396 20.302 8.97396 20.4623C8.97198 20.6226 8.90686 20.7748 8.79423 20.885ZM5.8898 10.5467C5.70012 10.8092 5.49464 11.0596 5.27333 11.294V4.50813V4.51013C5.2753 3.77681 5.86016 3.18378 6.58129 3.18178H7.23332V10.1262C6.74332 9.94783 6.19602 10.1199 5.8898 10.5467ZM48.9995 8.68937V12.6685H44.9867V8.68937H48.9995ZM48.2626 7.49725H45.7217V5.60187H48.2626V7.49725ZM15.0494 0.00200333L8.41073 6.73403V1.3284C8.41271 0.597089 8.99757 0.00405507 9.72066 0.0020547L15.0494 0.00200333ZM15.4031 8.42306L8.40882 8.42106L16.7131 0V7.09466C16.7111 7.82597 16.1263 8.41901 15.4032 8.42101L15.4031 8.42306ZM40.6402 0.00200333H17.8891V7.09461C17.8871 8.48507 16.7768 9.61313 15.4035 9.61513H8.40927V11.2981C9.79037 12.7667 11.697 13.6142 13.6985 13.6483C14.3426 13.6563 14.8583 14.1893 14.8583 14.8424V16.7999H36.266C36.59 16.7999 36.8548 17.0664 36.8548 17.395C36.8548 17.7256 36.59 17.9921 36.266 17.9921H14.8583V20.9573H28.7522C29.0782 20.9573 29.341 21.2238 29.341 21.5544C29.341 21.883 29.0783 22.1495 28.7522 22.1495H14.8583V23.8185C14.8583 24.2553 14.8168 24.69 14.7338 25.1188H36.2659C36.5899 25.1188 36.8547 25.3853 36.8547 25.7159C36.8547 26.0445 36.59 26.311 36.2659 26.311H14.3797C13.8779 27.5392 13.0086 28.5791 11.8961 29.2823C10.8015 29.9756 9.63186 30.5346 8.40888 30.9493V39.4924C8.41085 40.2238 8.99571 40.8188 9.71881 40.8208H40.6402C41.3633 40.8188 41.9481 40.2237 41.9501 39.4924V1.3284C41.9481 0.597089 41.3633 0.00400371 40.6402 0.00200333ZM26.8985 12.9972H25.8237C25.4996 12.9972 25.2349 12.7308 25.2349 12.4022C25.2349 12.0716 25.4996 11.8051 25.8237 11.8051H26.9005H26.8985C27.2245 11.8051 27.4873 12.0716 27.4873 12.4022C27.4873 12.7307 27.2245 12.9972 26.8985 12.9972ZM34.7228 12.9972H28.7047C28.3787 12.9972 28.1159 12.7308 28.1159 12.4022C28.1159 12.0716 28.3787 11.8051 28.7047 11.8051H34.7213C35.0473 11.8051 35.3101 12.0716 35.3101 12.4022C35.3101 12.7307 35.0473 12.9972 34.7213 12.9972H34.7228ZM36.2659 10.0239H30.4947C30.1687 10.0239 29.9059 9.75745 29.9059 9.42684C29.9059 9.09825 30.1687 8.83175 30.4947 8.83175H36.2659C36.5899 8.83175 36.8547 9.09823 36.8547 9.42684C36.8547 9.75743 36.59 10.0239 36.2659 10.0239ZM36.2659 22.1518H30.5599C30.2339 22.1518 29.9711 21.8854 29.9711 21.5567C29.9711 21.2262 30.2339 20.9597 30.5599 20.9597H36.2659C36.5899 20.9597 36.8547 21.2261 36.8547 21.5567C36.8547 21.8853 36.59 22.1518 36.2659 22.1518ZM15.668 36.3129C14.8323 36.3129 14.0795 35.804 13.7594 35.0206C13.4393 34.2373 13.6152 33.3356 14.206 32.7366C14.7967 32.1375 15.6858 31.9572 16.4584 32.2818C17.2309 32.6063 17.7347 33.3717 17.7347 34.2192C17.7327 35.3753 16.8081 36.3109 15.668 36.3129ZM22.3978 30.4682H14.0935C13.7694 30.4682 13.5047 30.1998 13.5047 29.8712C13.5047 29.5426 13.7694 29.2741 14.0935 29.2741H22.3978C22.7218 29.2741 22.9866 29.5426 22.9866 29.8712C22.9866 30.1998 22.7218 30.4682 22.3978 30.4682ZM23.6129 29.8712C23.6129 29.5426 23.8776 29.2741 24.2017 29.2741H36.2676C36.5917 29.2741 36.8545 29.5426 36.8545 29.8712C36.8545 30.1998 36.5917 30.4682 36.2676 30.4682H24.2017C24.0456 30.4682 23.8954 30.4041 23.7867 30.2919C23.6761 30.1817 23.6129 30.0294 23.6129 29.8712ZM37.2777 35.4168C36.5209 35.501 32.8084 35.9177 32.348 35.9177H32.3184C32.0517 35.9057 31.8126 35.7554 31.6822 35.521C31.5696 35.2906 31.5656 35.0221 31.6684 34.7857C31.4451 34.8278 31.2772 34.8618 31.1488 34.8859C30.803 34.956 30.3743 35.0421 30.1767 34.5893V34.5913C30.1391 34.5072 30.1213 34.415 30.1253 34.3229C29.9751 34.389 29.8507 34.4451 29.7756 34.4831C29.3192 34.7616 28.8806 35.0682 28.4616 35.3988C27.9796 35.7614 27.8946 35.8216 27.7583 35.8636C27.4639 35.9538 27.1497 35.7995 27.0391 35.509C26.9284 35.2185 27.0549 34.8899 27.3335 34.7556C27.4026 34.7095 27.6022 34.5613 27.7622 34.4391V34.4411C28.2344 34.0624 28.7323 33.7198 29.2539 33.4152C29.408 33.3371 29.9277 33.1087 30.4295 32.9083C31.4649 32.4956 31.6901 32.4916 31.8778 32.5316H31.8758C32.0497 32.5677 32.1959 32.6819 32.2789 32.8402C32.3599 32.9985 32.3678 33.1848 32.2986 33.3511C32.2809 33.3952 32.2611 33.4373 32.2413 33.4793L32.2809 33.4733V33.4713C32.5733 33.3972 32.8795 33.5094 33.0593 33.7558C33.2293 34.0383 33.2214 34.395 33.0416 34.6715C33.8714 34.5913 35.3829 34.4331 37.1512 34.2327C37.3073 34.2127 37.4654 34.2567 37.5899 34.3549C37.7143 34.4551 37.7934 34.5994 37.8111 34.7596C37.8289 34.9179 37.7815 35.0782 37.6827 35.2024C37.582 35.3267 37.4377 35.4028 37.2797 35.4188L37.2777 35.4168ZM16.5594 34.2187C16.5574 34.5833 16.3421 34.9119 16.0082 35.0522C15.6762 35.1904 15.2929 35.1143 15.04 34.8558C14.7851 34.5974 14.7081 34.2087 14.8464 33.8721C14.9847 33.5355 15.3087 33.3151 15.6683 33.3151C16.1603 33.3151 16.5574 33.7198 16.5594 34.2187ZM11.2662 28.274C12.7895 27.3223 13.7063 25.6313 13.6825 23.818V14.842C10.9698 14.8019 8.43684 13.4695 6.84052 11.2476C5.24607 13.4695 2.71108 14.8019 0.000524777 14.842V23.818C-0.0251605 25.6313 0.893574 27.3223 2.41691 28.274C3.78612 29.1335 5.27986 29.7767 6.8427 30.1754C8.40356 29.7767 9.89695 29.1335 11.2662 28.274ZM2.55469 21.3137C2.55469 19.5566 3.59988 17.9718 5.2003 17.2986C6.80269 16.6254 8.64609 16.998 9.8711 18.2402C11.0961 19.4824 11.4636 21.3518 10.7997 22.9767C10.1378 24.5996 8.57498 25.6595 6.84022 25.6595C4.47518 25.6575 2.55868 23.712 2.55469 21.3137ZM44.9871 32.3773H49L47.6762 34.8978H47.5814V36.3725C47.5814 36.7031 47.3186 36.9696 46.9926 36.9696C46.6685 36.9696 46.4057 36.7031 46.4057 36.3725V34.8998H46.3129L44.9871 32.3773ZM44.9871 13.86H49V31.1848H44.9871V13.86ZM9.7189 42.0125H38.8128V42.6737C38.8108 43.405 38.226 43.998 37.5029 44H6.5815C5.86032 43.998 5.27551 43.4049 5.27354 42.6737V30.9468C5.69438 31.0931 6.12314 31.2213 6.55186 31.3315C6.74154 31.3816 6.94109 31.3816 7.13075 31.3315L7.23547 31.3035V39.4922C7.23745 40.8827 8.34767 42.0084 9.7189 42.0125Z" fill="#162D4F"/>
</svg>
