<svg width="50" height="46" viewBox="0 0 50 46" fill="none" xmlns="http://www.w3.org/2000/svg">
<path fill-rule="evenodd" clip-rule="evenodd" d="M3.54963 13.728L39.4098 5.50071L38.9129 3.28326C38.7748 2.65208 38.1455 2.25554 37.5271 2.39515L3.91952 10.0528C3.29562 10.1925 2.90361 10.8236 3.0416 11.4548C3.21273 12.2088 3.37843 12.974 3.54963 13.728ZM3.25146 8.04206L37.2842 0.29506C38.9074 -0.0735453 40.5251 0.959712 40.8895 2.60186L44.4562 18.5482H42.3251L40.7073 11.3263L4.84703 19.5536L7.06658 29.4566L7.26534 30.3335C7.34264 30.6854 7.69048 30.9144 8.04384 30.8306L8.3088 30.7692V32.8805L8.27015 32.8921C6.923 33.1993 5.58137 32.3336 5.27217 30.9764L0.960115 11.6954C0.777888 10.8743 0.910446 10.1036 1.35212 9.38867C1.7938 8.6737 2.43982 8.22685 3.25138 8.04253L3.25146 8.04206ZM12.0854 19.1235C10.4235 19.1235 9.07077 20.4976 9.07077 22.1788V42.0183C9.07077 43.6994 10.4235 45.0679 12.0854 45.0679H46.9795C48.6413 45.0679 49.9995 43.6939 49.9995 42.0183V22.1788C49.9995 20.4976 48.6413 19.1235 46.9795 19.1235H12.0854ZM46.2451 28.0044C46.2451 26.6583 46.2451 25.3123 46.2451 23.9661C46.2451 23.7036 46.0408 23.497 45.7813 23.497C42.8054 23.497 39.8295 23.497 36.8535 23.497C36.5995 23.497 36.3898 23.7092 36.3898 23.9661C36.3898 25.3123 36.3898 26.6583 36.3898 28.0044C36.3898 28.2614 36.5995 28.4736 36.8535 28.4736C39.8295 28.4736 42.8054 28.4736 45.7813 28.4736C46.0298 28.4736 46.2451 28.2669 46.2451 28.0044ZM39.6639 40.2477C39.4043 40.2477 39.1945 40.0354 39.1945 39.7785V38.8401C39.1945 38.5832 39.4043 38.3709 39.6639 38.3709H45.7758C46.0298 38.3709 46.2396 38.5832 46.2396 38.8401V39.7785C46.2396 40.0354 46.0298 40.2477 45.7758 40.2477H39.6639ZM31.1336 40.2477C30.8796 40.2477 30.6698 40.0354 30.6698 39.7785V38.8457C30.6698 38.5832 30.8796 38.3766 31.1336 38.3766H37.2511C37.505 38.3766 37.7149 38.5888 37.7149 38.8457V39.7785C37.7149 40.0354 37.505 40.2477 37.2511 40.2477H31.1336ZM22.6087 40.2477C22.3548 40.2477 22.145 40.0354 22.145 39.7785V38.8457C22.145 38.5832 22.3548 38.3766 22.6087 38.3766H28.7264C28.9802 38.3766 29.1901 38.5888 29.1901 38.8457V39.7785C29.1901 40.0354 28.9802 40.2477 28.7264 40.2477H22.6087ZM14.084 40.2477C13.8301 40.2477 13.6202 40.0354 13.6202 39.7785V38.8457C13.6202 38.5832 13.8301 38.3766 14.084 38.3766H20.2016C20.4555 38.3766 20.6653 38.5888 20.6653 38.8457V39.7785C20.6653 40.0354 20.4555 40.2477 20.2016 40.2477H14.084Z" fill="#162D4F"/>
</svg>
