<svg width="119" height="18" viewBox="0 0 119 18" fill="none" xmlns="http://www.w3.org/2000/svg">
<g clip-path="url(#clip0_135_2563)">
<path d="M28.3679 3.4034C25.0452 3.4034 23.8697 5.1166 23.8697 6.75556C23.8697 9.09693 25.9297 9.57662 27.7743 9.99921C29.0545 10.3019 30.1601 10.5703 30.1601 11.4554C30.1601 11.918 29.8867 12.6775 28.0304 12.6775C26.7598 12.6505 25.5261 12.2529 24.4865 11.5354L23.6719 13.3456C24.9554 14.1788 26.4686 14.6054 28.0071 14.5677C30.7537 14.5677 32.5402 13.2543 32.5402 11.2327C32.5402 8.94843 30.4453 8.46876 28.6181 8.04046C27.3379 7.73779 26.2323 7.46938 26.2323 6.60136C26.2323 5.45923 27.6929 5.30505 28.3446 5.30505C29.0437 5.26915 29.7407 5.40869 30.3696 5.7105L32.1154 4.43131C30.9749 3.75452 29.6714 3.38791 28.3388 3.36914L28.3679 3.4034ZM57.3294 3.58043V14.4307H59.7152V11.3641H62.0836L64.1959 14.4307H66.7446L64.3239 10.9015C65.0129 10.6267 65.5992 10.1505 66.0031 9.53752C66.407 8.92457 66.609 8.20453 66.5817 7.47509C66.5817 5.08232 64.772 3.59185 61.8857 3.59185H57.3352L57.3294 3.58043ZM108.409 3.58043V14.4307H110.795V10.0677H112.279L115.927 14.4307H119L114.124 8.82853L118.389 3.59756H115.66L112.116 8.24033H110.795V3.59756H108.409V3.58043ZM46.7619 3.58043V14.4307H55.1123V12.6204H49.1478V9.85644H54.2627V8.04615H49.1652V5.40213H52.6567L55.1531 3.59185H46.7619V3.58043ZM87.0357 3.58043L82.2816 14.4307H84.7023L85.6857 12.2549H90.7425L91.6444 14.4364H94.1583L89.503 3.58613H87.0648L87.0357 3.58043ZM95.6538 3.58043V14.4307H97.9465V7.34375L103.422 14.4364H105.68V3.58613H103.405V10.713L97.9058 3.59756H95.648L95.6538 3.58043ZM34.7456 3.58043V14.4307H40.297C43.0436 14.4307 44.5623 13.3856 44.5623 11.5068C44.5947 10.9121 44.4216 10.3241 44.071 9.83797C43.7203 9.35187 43.2127 8.99619 42.6304 8.82853L42.5199 8.79427L42.6304 8.74286C43.0657 8.51748 43.4282 8.17727 43.677 7.76055C43.9258 7.34384 44.051 6.8672 44.0386 6.38437C44.0386 4.6312 42.5198 3.60326 39.9653 3.60326H34.7281L34.7456 3.58043ZM71.621 3.58043V14.4307H77.1492C79.8958 14.4307 81.4145 13.3856 81.4145 11.5068C81.4378 10.916 81.2608 10.3343 80.9112 9.85275C80.5616 9.37121 80.0592 9.01704 79.4826 8.84566L79.372 8.79427L79.4826 8.74286C79.9197 8.51958 80.2837 8.17982 80.5328 7.76261C80.7819 7.3454 80.906 6.86769 80.8908 6.38437C80.8908 4.6312 79.372 3.60326 76.8175 3.60326H71.5803L71.621 3.58043ZM37.1314 5.36787H39.6627C41.2688 5.36787 41.5946 6.09312 41.5946 6.69845C41.5946 7.56647 40.9254 8.02902 39.6627 8.02902H37.1314V5.36787ZM76.5382 5.36787C78.1268 5.36787 78.4701 6.09312 78.4701 6.69845C78.4701 7.56647 77.8009 8.02902 76.5382 8.02902H74.0068V5.385H76.5382V5.36787ZM59.7152 5.36787H61.8275C63.3638 5.36787 64.1959 6.11024 64.1959 7.44083C64.1959 8.77141 63.3638 9.57091 61.8275 9.57091H59.7152V5.36787ZM88.2287 6.04173L89.9744 10.3875H86.384L88.2287 6.04173ZM37.1314 9.81646H40.0933C41.4491 9.81646 42.1358 10.279 42.1358 11.1984C42.1358 12.1178 41.4666 12.5804 40.0933 12.5804H37.1314V9.81646ZM74.0068 9.81646H76.9571C78.313 9.81646 78.9996 10.279 78.9996 11.1984C78.9996 12.1178 78.3304 12.5804 76.9571 12.5804H73.9952L74.0068 9.81646Z" fill="white"/>
<path d="M16.4393 3.51221C16.8712 4.0689 17.24 4.67017 17.5391 5.30535L9.18871 11.3529L5.69727 9.1886V6.60166L9.18871 8.74887L16.4393 3.51221Z" fill="white"/>
<path d="M2.11233 9.00016C2.10335 8.8823 2.10335 8.76396 2.11233 8.6461L3.69048e-07 8.5376C3.69048e-07 8.68036 3.69048e-07 8.84026 3.69048e-07 8.98303C-0.000341978 10.1662 0.237502 11.3378 0.699859 12.4305C1.16222 13.5232 1.83998 14.5155 2.69423 15.3504L4.19555 13.8771C3.53567 13.241 3.01198 12.4819 2.65524 11.6444C2.29849 10.8069 2.1159 9.90788 2.11815 9.00016H2.11233Z" fill="white"/>
<path d="M9.1583 2.09006C9.2784 2.08126 9.39899 2.08126 9.51908 2.09006L9.62965 0.0170902H9.17576C7.97013 0.0167542 6.77632 0.250167 5.66287 0.70391C4.54941 1.15765 3.53826 1.82279 2.6875 2.66113L4.18883 4.13449C4.83837 3.48871 5.61213 2.97595 6.46521 2.62598C7.31829 2.27601 8.23369 2.09579 9.1583 2.09578V2.09006Z" fill="white"/>
<path d="M9.15884 15.9272C9.03875 15.936 8.91816 15.936 8.79806 15.9272L8.6875 18.0002H9.14139C10.347 18.0005 11.5408 17.7671 12.6543 17.3134C13.7678 16.8596 14.7789 16.1945 15.6296 15.3562L14.1109 13.8828C13.4651 14.5335 12.6921 15.0496 11.8381 15.3999C10.9842 15.7502 10.0669 15.9276 9.14139 15.9215L9.15884 15.9272Z" fill="white"/>
<path d="M13.1345 3.28953L14.921 1.99322C13.289 0.697426 11.2536 -0.0100626 9.1543 -0.0112305V2.06174C10.5738 2.07034 11.958 2.49598 13.1287 3.28381L13.1345 3.28953Z" fill="white"/>
<path d="M18.3423 8.9999C18.3396 8.45816 18.291 7.91759 18.1968 7.38379L16.23 8.82287V8.9999C16.2346 9.96942 16.0294 10.9289 15.6282 11.8148C15.227 12.7008 14.6387 13.4931 13.9023 14.1395L15.328 15.6814C16.2794 14.8371 17.0394 13.806 17.5587 12.655C18.078 11.504 18.3449 10.2587 18.3423 8.9999Z" fill="white"/>
<path d="M9.15986 15.9268C8.17193 15.9313 7.19429 15.7301 6.29149 15.3363C5.3887 14.9425 4.58132 14.3652 3.9227 13.6426L2.35156 15.0417C3.20863 15.9767 4.25689 16.7239 5.42799 17.2346C6.59909 17.7453 7.86672 18.0079 9.14823 18.0055L9.15986 15.9268Z" fill="white"/>
<path d="M4.44583 3.86024L3.02015 2.31836C2.06594 3.16074 1.30369 4.19133 0.783263 5.3427C0.262832 6.49407 -0.00405687 7.74028 4.66101e-05 8.99984H2.11237C2.11074 8.03077 2.31717 7.07223 2.71822 6.18668C3.11927 5.30113 3.70594 4.50843 4.44 3.86024H4.44583Z" fill="white"/>
</g>
<defs>
<clipPath id="clip0_135_2563">
<rect width="119" height="18" fill="white"/>
</clipPath>
</defs>
</svg>
