<svg width="39" height="26" viewBox="0 0 39 26" fill="none" xmlns="http://www.w3.org/2000/svg">
<path fill-rule="evenodd" clip-rule="evenodd" d="M30.3767 8.66667C35.1433 8.66667 39 12.5667 39 17.3333C39 22.1 35.1 26 30.3333 26C25.5667 26 21.6667 22.1 21.6667 17.3333C21.6667 7.75667 29.4233 0 39 0C39 0 33.3233 2.12333 30.3767 8.66667ZM17.3333 17.3333C17.3333 22.1 13.4333 26 8.66667 26C3.9 26 0 22.1 0 17.3333C0 7.75667 7.75667 0 17.3333 0C17.3333 0 11.6567 2.12333 8.71 8.66667C13.4767 8.66667 17.3333 12.5667 17.3333 17.3333Z" fill="#E1E1E1"/>
</svg>
