<svg width="44" height="44" viewBox="0 0 44 44" fill="none" xmlns="http://www.w3.org/2000/svg">
<path d="M23.9925 7.80638C25.2911 7.81364 28.8935 7.81364 30.1995 7.80638L32.7862 0.99414C32.9685 0.514018 32.6138 0 32.1002 0H22.0918C21.5782 0 21.2236 0.514018 21.4059 0.99414L23.9925 7.80638Z" fill="#162D4F"/>
<path d="M21.4016 32.0104H27.3664C29.1859 32.0104 30.668 33.4998 30.668 35.334C30.668 35.5101 30.6533 35.6862 30.6313 35.8549L38.6211 32.2966C39.4868 30.8733 40.0004 29.1197 40.0004 26.992C40.0004 20.9171 35.9431 12.0836 30.4845 9.24426C30.4106 9.24456 24.1873 9.32475 23.6613 9.26627C18.232 12.1203 14.1895 20.9245 14.1895 26.992C14.1895 28.0265 14.3068 28.973 14.5269 29.8314C16.4294 30.563 17.9251 32.0104 21.4016 32.0104ZM21.9754 22.5796C21.5699 22.5796 21.2417 22.2514 21.2417 21.8459C21.2417 21.4404 21.5699 21.1122 21.9754 21.1122H24.0639V15.783C24.0639 15.5398 24.1898 15.3349 24.3717 15.2014C24.4936 15.1114 24.6362 15.0477 24.7985 15.0477H29.1786C31.2549 15.0477 32.9497 16.7352 32.9497 18.8115C32.9497 20.8878 31.2549 22.5826 29.1786 22.5826H25.5313V23.931H29.4046C29.8101 23.931 30.1383 24.2591 30.1383 24.6647C30.1383 25.0702 29.8101 25.3983 29.4046 25.3983H25.5313V28.1898C25.5313 28.5953 25.2031 28.9235 24.7976 28.9235C24.3921 28.9235 24.0639 28.5953 24.0639 28.1898V25.3983H21.9754C21.5699 25.3983 21.2417 25.0702 21.2417 24.6647C21.2417 24.2591 21.5699 23.931 21.9754 23.931H24.0639V22.5797L21.9754 22.5796Z" fill="#162D4F"/>
<path d="M31.4834 18.8116C31.4834 17.5496 30.4489 16.5151 29.1796 16.5151H25.5332V21.1153H29.1796C30.4489 21.1153 31.4834 20.0808 31.4834 18.8116Z" fill="#162D4F"/>
<path d="M0 42.6635H8.71615V27.5497H0V42.6635ZM4.36358 28.8315C5.06505 28.8315 5.64282 29.401 5.64282 30.1107C5.64282 30.8205 5.06505 31.39 4.36358 31.39C3.65381 31.39 3.07604 30.8205 3.07604 30.1107C3.07604 29.401 3.65381 28.8315 4.36358 28.8315Z" fill="#162D4F"/>
<path d="M43.6326 33.6098C43.2291 32.7148 42.1799 32.3112 41.2922 32.7148C41.217 32.7491 28.3498 38.6502 27.3669 38.6502C24.3014 38.6502 21.6481 38.6502 18.5407 38.6502C18.1372 38.6502 17.807 38.3201 17.807 37.9166C17.807 37.513 18.1372 37.1829 18.5407 37.1829C20.3813 37.1829 25.361 37.1829 27.3669 37.1829C28.4073 37.1829 29.2011 36.3318 29.2011 35.334C29.2011 34.3068 28.3794 33.4778 27.3669 33.4778H21.4021C15.9339 33.4778 15.1549 30.4917 10.2134 30.4917H10.1914V40.1616L17.763 43.023C21.7469 44.527 26.3177 44.2849 30.1182 42.3627L42.8036 35.9576C43.662 35.5248 44.0288 34.4976 43.6326 33.6098Z" fill="#162D4F"/>
</svg>
