<svg width="48" height="45" viewBox="0 0 48 45" fill="none" xmlns="http://www.w3.org/2000/svg">
<path d="M43.1586 22.6059C41.8545 22.6318 40.5505 22.6059 39.2812 22.6059C39.225 22.6151 39.1673 22.6029 39.1197 22.5716C39.0722 22.5403 39.0382 22.4923 39.0247 22.4372C38.9161 22.1475 38.7857 21.8663 38.6683 21.5722C37.9511 19.8423 37.2947 18.0561 36.4949 16.3478C35.3082 13.7789 33.2913 12.3993 30.4093 12.4079C27.7534 12.4079 25.0975 12.4079 22.4416 12.4079C21.0636 12.4079 19.6857 12.4079 18.3077 12.4079C16.6125 12.4079 14.9129 12.369 13.2176 12.4641C12.4291 12.5039 11.6577 12.7077 10.9532 13.0623C10.2487 13.4168 9.62664 13.9144 9.12721 14.5228C8.50088 15.3083 7.99681 16.183 7.6319 17.1177C6.86686 18.8779 6.12355 20.6424 5.38024 22.4113C5.36219 22.4722 5.32301 22.5247 5.26969 22.5595C5.21636 22.5944 5.15233 22.6093 5.089 22.6016C3.78495 22.6016 2.50264 22.6016 1.21162 22.6016C1.09897 22.5841 0.9837 22.5959 0.877011 22.6359C0.770322 22.6759 0.675848 22.7427 0.602775 22.8298C0.529703 22.9168 0.480518 23.0212 0.460003 23.1328C0.439489 23.2444 0.448342 23.3594 0.485703 23.4665C0.66827 24.2234 0.894306 24.9759 1.12904 25.7198C1.1949 25.9163 1.32571 26.0848 1.50016 26.1979C1.6746 26.311 1.8824 26.362 2.08969 26.3425H3.51545C3.57625 26.3391 3.63721 26.3391 3.69801 26.3425C3.67193 26.4204 3.6502 26.4809 3.62847 26.5372C3.20682 27.5795 2.80257 28.6044 2.407 29.6381C2.35315 29.776 2.32516 29.9226 2.32441 30.0706C2.32441 34.2974 2.32441 38.5213 2.32441 42.7423C2.32777 42.9874 2.37793 43.2295 2.47221 43.4559C2.60848 43.8433 2.86332 44.1785 3.20092 44.4143C3.53852 44.6501 3.94191 44.7748 4.35439 44.7707C5.8497 44.7707 7.34501 44.7707 8.84032 44.7707C9.30086 44.7746 9.7479 44.616 10.102 44.3231C10.4562 44.0301 10.6945 43.6217 10.7747 43.1705C10.8431 42.788 10.8766 42.4 10.8746 42.0114C10.8746 41.0513 10.8746 40.0912 10.8746 39.1268V38.8716H33.5173V39.1571C33.5173 40.2469 33.5173 41.3397 33.5173 42.4353C33.5173 43.9663 34.3215 44.7664 35.8646 44.775C37.0687 44.775 38.2771 44.775 39.4855 44.775C39.6949 44.7721 39.904 44.7562 40.1115 44.7275C40.5789 44.6426 41.0017 44.3976 41.3066 44.035C41.6115 43.6724 41.7792 43.2151 41.7806 42.7423C41.8067 38.6164 41.7806 34.4862 41.7806 30.356C41.7773 30.0022 41.7276 29.6504 41.6328 29.3094C41.4677 28.7082 41.2547 28.1157 41.0547 27.5232C40.9243 27.1297 40.7809 26.7404 40.62 26.3512H42.2588C42.478 26.374 42.6983 26.3193 42.8811 26.1968C43.0639 26.0742 43.1975 25.8916 43.2586 25.6808C43.4846 24.9586 43.6932 24.232 43.8802 23.4968C43.9218 23.3886 43.9342 23.2715 43.9161 23.1571C43.898 23.0427 43.8501 22.935 43.777 22.8448C43.704 22.7546 43.6084 22.6851 43.4999 22.6431C43.3914 22.6012 43.2737 22.5884 43.1586 22.6059ZM9.63145 33.7034H6.29308C6.06251 33.7034 5.84138 33.6123 5.67834 33.4501C5.5153 33.2879 5.42371 33.0679 5.42371 32.8385V32.5876C5.42055 32.4775 5.44173 32.368 5.48575 32.2669C5.52978 32.1659 5.59557 32.0756 5.67849 32.0026C5.76141 31.9296 5.85943 31.8756 5.96562 31.8444C6.07182 31.8132 6.1836 31.8056 6.29308 31.8221L8.5317 32.1119C9.0142 32.1768 9.94442 32.9466 10.1487 33.219C10.353 33.4915 10.1139 33.7034 9.63145 33.7034ZM27.6882 33.6688C27.5721 33.691 27.4543 33.7026 27.3361 33.7034H17.1123C16.9523 33.7175 16.7911 33.6957 16.6406 33.6396C16.4901 33.5834 16.3543 33.4944 16.243 33.3791C16.136 33.263 16.0618 33.1208 16.0279 32.967C15.9941 32.8131 16.0019 32.6531 16.0505 32.5032C16.0991 32.3533 16.1868 32.2189 16.3046 32.1137C16.4224 32.0085 16.5661 31.9362 16.7211 31.9043C16.864 31.8736 17.0097 31.8576 17.1558 31.8567C18.8598 31.8567 20.5637 31.8567 22.2677 31.8567H27.3665C27.4907 31.8568 27.6146 31.8699 27.736 31.8956C27.955 31.9248 28.1546 32.0358 28.2943 32.2061C28.434 32.3764 28.5032 32.5932 28.488 32.8125C28.4782 33.0264 28.3924 33.2298 28.246 33.3866C28.0995 33.5434 27.9018 33.6434 27.6882 33.6688ZM9.91399 24.5867C8.85219 24.5533 7.79071 24.6624 6.75819 24.911C7.019 24.418 7.29285 23.9336 7.53627 23.4363C8.32739 21.8144 9.08809 20.1796 9.89226 18.5665C10.2571 17.85 10.659 17.1527 11.0963 16.4776C11.3649 16.0619 11.735 15.7209 12.1722 15.4864C12.6093 15.2519 13.0992 15.1316 13.5958 15.1369C13.8609 15.1369 14.1261 15.1369 14.3912 15.1369H30.3485C30.9161 15.1224 31.4812 15.2164 32.0133 15.4137C32.4402 15.5852 32.8212 15.8532 33.1261 16.1965C33.7304 16.9061 34.2189 17.7059 34.5736 18.5665C35.5299 20.6727 36.4992 22.7702 37.4599 24.8764C37.479 24.9125 37.4949 24.9501 37.5077 24.9889C37.1276 24.8706 36.7398 24.7782 36.3471 24.7121C35.4777 24.6386 34.5779 24.6126 33.6955 24.5694C33.5869 24.5694 33.4782 24.5694 33.3652 24.5694L9.91399 24.5867ZM38.3075 32.9033C38.3075 33.1327 38.2159 33.3527 38.0529 33.515C37.8899 33.6772 37.6687 33.7683 37.4382 33.7683H34.0867C33.5999 33.7683 33.3695 33.5477 33.5738 33.2753C33.7781 33.0028 34.7127 32.2287 35.1908 32.1681L37.4338 31.8783C37.5429 31.8619 37.6543 31.8694 37.7602 31.9004C37.8661 31.9313 37.9638 31.9849 38.0467 32.0575C38.1295 32.13 38.1954 32.2197 38.2397 32.3202C38.284 32.4208 38.3057 32.5298 38.3032 32.6395L38.3075 32.9033Z" fill="#162D4F"/>
<circle cx="37.9113" cy="10.0875" r="8.8625" stroke="#162D4F" stroke-width="2"/>
<path d="M37.9113 2.22498C33.5579 2.22498 30.0488 5.73929 30.0488 10.0909C30.0488 14.4425 33.5579 17.95 37.9113 17.95C42.2648 17.95 45.7738 14.4425 45.7738 10.0909C45.7738 5.73929 42.2648 2.22498 37.9113 2.22498ZM42.5541 6.79945C42.7305 6.79423 42.9044 6.8426 43.0528 6.9381C43.2012 7.03361 43.3172 7.1718 43.3855 7.33451C43.4538 7.49722 43.4713 7.67679 43.4356 7.84961C43.3999 8.02244 43.3126 8.18045 43.1854 8.30275L37.1231 14.3651C36.9594 14.5278 36.7379 14.6191 36.5071 14.6191C36.2763 14.6191 36.0548 14.5278 35.8911 14.3651L32.0486 10.5277C31.9643 10.4472 31.897 10.3506 31.8505 10.2437C31.8041 10.1367 31.7794 10.0216 31.7781 9.90499C31.7767 9.78841 31.7987 9.6727 31.8426 9.56471C31.8866 9.45672 31.9517 9.35862 32.034 9.27613C32.1164 9.19363 32.2145 9.12837 32.3224 9.08427C32.4303 9.04017 32.546 9.01808 32.6625 9.01928C32.7791 9.02047 32.8943 9.04492 33.0013 9.09122C33.1083 9.13753 33.205 9.20475 33.2856 9.28892L36.5037 12.507L41.9535 7.06396C42.1118 6.9011 42.3272 6.80622 42.5541 6.79945Z" fill="#162D4F"/>
</svg>
