<svg width="45" height="43" viewBox="0 0 45 43" fill="none" xmlns="http://www.w3.org/2000/svg">
<path d="M22.3528 0.225118C22.325 0.225639 22.2973 0.227669 22.2698 0.231116C22.0938 0.252167 21.93 0.331871 21.8049 0.45742C14.7121 7.54834 7.62286 14.6413 0.530045 21.7323C0.420651 21.8423 0.346161 21.9821 0.315909 22.1343C0.285658 22.2864 0.300991 22.4441 0.359987 22.5875C0.418983 22.731 0.519018 22.8538 0.647556 22.9407C0.776094 23.0276 0.927417 23.0746 1.08256 23.0758H8.17884V40.4078C8.17844 40.5114 8.19847 40.6141 8.23778 40.7099C8.2771 40.8058 8.33493 40.8929 8.40797 40.9664C8.48101 41.0399 8.56782 41.0982 8.66344 41.1381C8.75906 41.178 8.86161 41.1987 8.96523 41.1989H18.4238C18.5274 41.1987 18.63 41.178 18.7256 41.1381C18.8213 41.0982 18.9081 41.0399 18.9811 40.9664C19.0542 40.8929 19.112 40.8058 19.1513 40.7099C19.1906 40.6141 19.2107 40.5114 19.2103 40.4078V30.1659H25.5154V40.4078C25.515 40.5114 25.5351 40.6141 25.5744 40.7099C25.6137 40.8058 25.6716 40.8929 25.7446 40.9664C25.8176 41.0399 25.9045 41.0982 26.0001 41.1381C26.0957 41.178 26.1983 41.1987 26.3019 41.1989H29.0751C27.835 39.6997 27.0883 37.7783 27.0883 35.6863C27.0883 30.9099 30.9778 27.0156 35.7558 27.0156C36.0228 27.0156 36.286 27.0306 36.5469 27.0556V23.0757H43.6432C43.7984 23.0748 43.95 23.028 44.0787 22.9412C44.2075 22.8545 44.3078 22.7317 44.367 22.5881C44.4261 22.4446 44.4416 22.2868 44.4114 22.1345C44.3812 21.9823 44.3067 21.8423 44.1972 21.7322L22.9207 0.457329C22.8464 0.382619 22.7578 0.323547 22.6603 0.283648C22.5627 0.243748 22.4582 0.223914 22.3528 0.225118Z" fill="white"/>
<path d="M35.7557 28.5916C31.8291 28.5916 28.6641 31.7613 28.6641 35.6863C28.6641 39.6112 31.8291 42.7749 35.7557 42.7749C39.6823 42.7749 42.8473 39.6112 42.8473 35.6863C42.8473 31.7613 39.6823 28.5916 35.7557 28.5916ZM39.9433 32.7175C40.1024 32.7128 40.2592 32.7565 40.3931 32.8426C40.5269 32.9287 40.6315 33.0534 40.6932 33.2001C40.7548 33.3469 40.7705 33.5089 40.7383 33.6647C40.7061 33.8206 40.6274 33.9632 40.5127 34.0735L35.0447 39.5414C34.8971 39.6882 34.6973 39.7706 34.4891 39.7706C34.2809 39.7706 34.0812 39.6882 33.9335 39.5414L30.4678 36.0803C30.3918 36.0076 30.331 35.9205 30.2891 35.8241C30.2472 35.7276 30.225 35.6238 30.2238 35.5186C30.2226 35.4135 30.2423 35.3091 30.282 35.2117C30.3216 35.1143 30.3803 35.0258 30.4546 34.9514C30.5289 34.877 30.6174 34.8181 30.7147 34.7784C30.8121 34.7386 30.9164 34.7187 31.0215 34.7197C31.1267 34.7208 31.2306 34.7429 31.3271 34.7846C31.4236 34.8264 31.5108 34.887 31.5835 34.9629L34.4861 37.8655L39.4016 32.9561C39.5443 32.8092 39.7386 32.7236 39.9433 32.7175Z" fill="white"/>
</svg>
