<svg width="212" height="50" viewBox="0 0 212 50" fill="none" xmlns="http://www.w3.org/2000/svg">
<g clip-path="url(#clip0_436_382)">
<path d="M85.2017 28.2222C83.6106 28.2222 82.1411 27.9815 80.7933 27.5C79.4641 27 78.3036 26.2962 77.3114 25.3889C76.338 24.4815 75.5799 23.4073 75.037 22.1667C74.494 20.926 74.2227 19.5556 74.2227 18.0556C74.2227 16.5556 74.494 15.1852 75.037 13.9444C75.5799 12.7037 76.3473 11.6296 77.3395 10.7222C78.3317 9.81482 79.5016 9.12037 80.8494 8.63889C82.2159 8.13889 83.7135 7.88889 85.3421 7.88889C87.289 7.88889 89.0205 8.21295 90.5368 8.86111C92.0718 9.50926 93.3353 10.4352 94.3276 11.6389L90.0876 15.3333C89.4698 14.6296 88.7959 14.1018 88.0658 13.75C87.3544 13.3796 86.559 13.1944 85.6791 13.1944C84.949 13.1944 84.2845 13.3056 83.6854 13.5278C83.1052 13.75 82.609 14.0741 82.1972 14.5C81.7855 14.9259 81.4672 15.4352 81.2425 16.0278C81.0179 16.6204 80.9056 17.2963 80.9056 18.0556C80.9056 18.7778 81.0179 19.4444 81.2425 20.0556C81.4672 20.6482 81.7855 21.1573 82.1972 21.5833C82.609 22.0093 83.0958 22.3427 83.6574 22.5833C84.2376 22.8056 84.8834 22.9167 85.5948 22.9167C86.3436 22.9167 87.0736 22.7962 87.785 22.5556C88.4965 22.2962 89.2546 21.8611 90.0595 21.25L93.766 25.75C92.568 26.5462 91.2013 27.1573 89.6664 27.5833C88.1314 28.0093 86.6432 28.2222 85.2017 28.2222ZM88.0097 24.9167V17.5278H93.766V25.75L88.0097 24.9167ZM99.3975 27.7778V8.33333H108.86C110.695 8.33333 112.277 8.62962 113.606 9.22222C114.954 9.81482 115.992 10.6667 116.723 11.7778C117.453 12.8704 117.818 14.1667 117.818 15.6667C117.818 17.1667 117.453 18.463 116.723 19.5556C115.992 20.6296 114.954 21.4538 113.606 22.0278C112.277 22.6018 110.695 22.8889 108.86 22.8889H103.076L106.024 20.1944V27.7778H99.3975ZM111.163 27.7778L106.333 20.6944H113.353L118.239 27.7778H111.163ZM106.024 20.9167L103.076 17.9444H108.439C109.356 17.9444 110.03 17.7407 110.461 17.3333C110.91 16.9259 111.135 16.3704 111.135 15.6667C111.135 14.963 110.91 14.4074 110.461 14C110.03 13.5926 109.356 13.3889 108.439 13.3889H103.076L106.024 10.4167V20.9167ZM120.994 27.7778L129.586 8.33333H136.101L144.693 27.7778H137.842L131.496 11.4444H134.079L127.733 27.7778H120.994ZM126.104 24.3889L127.789 19.6667H136.831L138.515 24.3889H126.104ZM148.558 27.7778V8.33333H154.006L164.002 20.1667H161.475V8.33333H167.933V27.7778H162.486L152.49 15.9444H155.017V27.7778H148.558ZM178.202 27.7778V13.4167H172.446V8.33333H190.585V13.4167H184.829V27.7778H178.202ZM202.444 28.2222C200.795 28.2222 199.205 28.0371 197.67 27.6667C196.135 27.2962 194.871 26.8149 193.879 26.2222L196.013 21.4444C196.949 21.9815 197.988 22.4167 199.13 22.75C200.29 23.0649 201.413 23.2222 202.5 23.2222C203.135 23.2222 203.631 23.1851 203.988 23.1111C204.361 23.0184 204.634 22.8982 204.802 22.75C204.971 22.5833 205.055 22.3889 205.055 22.1667C205.055 21.8149 204.858 21.5371 204.465 21.3333C204.072 21.1296 203.547 20.9629 202.893 20.8333C202.255 20.6851 201.553 20.5371 200.787 20.3889C200.019 20.2222 199.242 20.0093 198.456 19.75C197.688 19.4907 196.977 19.1482 196.322 18.7222C195.685 18.2963 195.171 17.7407 194.777 17.0556C194.384 16.3518 194.188 15.4815 194.188 14.4444C194.188 13.2407 194.525 12.1482 195.199 11.1667C195.891 10.1667 196.911 9.37037 198.259 8.77778C199.626 8.18518 201.32 7.88889 203.342 7.88889C204.67 7.88889 205.982 8.02777 207.273 8.30555C208.565 8.58333 209.724 9.00926 210.755 9.58333L208.761 14.3333C207.787 13.8518 206.842 13.4907 205.925 13.25C205.027 13.0093 204.146 12.8889 203.286 12.8889C202.648 12.8889 202.143 12.9444 201.77 13.0556C201.395 13.1667 201.124 13.3148 200.955 13.5C200.805 13.6852 200.731 13.8889 200.731 14.1111C200.731 14.4444 200.927 14.713 201.32 14.9167C201.713 15.1018 202.227 15.2593 202.865 15.3889C203.519 15.5185 204.231 15.6574 204.999 15.8056C205.785 15.9537 206.561 16.1574 207.329 16.4167C208.096 16.6759 208.798 17.0185 209.435 17.4444C210.089 17.8704 210.615 18.4259 211.008 19.1111C211.401 19.7963 211.597 20.6482 211.597 21.6667C211.597 22.8518 211.25 23.9444 210.559 24.9444C209.885 25.926 208.874 26.7222 207.526 27.3333C206.178 27.926 204.483 28.2222 202.444 28.2222Z" fill="url(#paint0_linear_436_382)"/>
<path d="M0.130859 20.4216C0.39035 17.3917 2.84625 15.008 5.91381 14.8063L10.1537 14.7054L10.7468 26.9171L0.130859 20.4216Z" fill="url(#paint1_linear_436_382)"/>
<path d="M0.103346 33.4859C-0.563916 29.1724 2.05879 25.0194 6.27089 23.7268L8.44875 23.0573L17.1232 39.028L0.103346 33.4859Z" fill="url(#paint2_linear_436_382)"/>
<path d="M59.642 21.8655L55.7173 15.1408L53.9982 12.1933L48.8593 3.39205C47.7102 1.41635 45.5832 0.201599 43.2757 0.201599H21.7147C19.4117 0.201599 17.2849 1.41635 16.1311 3.39205L5.34828 21.8655C5.2 22.1222 5.06564 22.3881 4.95906 22.654C4.21303 24.4599 4.34276 26.5274 5.34828 28.2419L7.38715 31.7347L9.12018 34.7052L16.0198 46.5317L16.1311 46.7153C17.2802 48.6909 19.4071 49.9055 21.7147 49.9055H43.2757C45.5786 49.9055 47.7054 48.6909 48.8593 46.7153L59.642 28.2419C60.7959 26.2706 60.7959 23.8411 59.642 21.8655ZM52.9278 27.4534L44.814 41.3565C43.9476 42.8417 42.3489 43.754 40.6111 43.754H24.3884C24.0224 43.754 23.661 43.7127 23.3134 43.6347C22.0113 43.3415 20.8715 42.5299 20.1855 41.3565L15.7511 33.7563L14.3193 31.3085L12.0719 27.4534C11.3397 26.1974 11.2239 24.6938 11.7382 23.3599C11.8263 23.1214 11.9421 22.8877 12.0719 22.6585L20.1855 8.75529C21.0522 7.27009 22.6507 6.35789 24.3884 6.35789H40.6111C42.3442 6.35789 43.9476 7.27009 44.814 8.75529L45.435 9.8142L47.9419 14.1094L49.1744 16.2226L51.5236 20.2474L52.9324 22.6585C53.7943 24.1391 53.7943 25.968 52.9278 27.4534Z" fill="url(#paint3_linear_436_382)"/>
<g opacity="0.4">
<path d="M23.3129 43.6348C22.0526 44.2949 20.7735 44.9137 19.4854 45.4959C18.3455 46.0092 17.187 46.3484 16.0286 46.5272L9.12891 34.7006C11.33 34.5447 13.5356 34.2284 15.7505 33.7516L20.1851 41.352C20.8662 42.53 22.0108 43.3413 23.3129 43.6348Z" fill="#001738"/>
<path d="M55.7175 15.1407C54.3414 16.8964 52.9418 18.5971 51.5194 20.2472L49.1699 16.2226C50.7779 14.9345 52.3904 13.5914 53.9984 12.1978L55.7175 15.1407Z" fill="#001738"/>
<path d="M12.0724 27.4532L14.3198 31.3084C13.4347 31.533 12.545 31.7302 11.6553 31.8998C10.1725 32.184 8.72218 32.106 7.39693 31.7393L5.35806 28.2463C4.35253 26.532 4.22279 24.4691 4.96882 22.6584C7.1606 23.126 9.42188 23.3506 11.7388 23.3597C11.2244 24.6937 11.3402 26.1972 12.0724 27.4532Z" fill="#001738"/>
<path d="M51.0041 8.65442L47.9366 14.1093L45.4297 9.81416L51.0041 8.65442Z" fill="#001738"/>
</g>
<path d="M53.6327 5.43659L58.5305 6.50008C38.7768 24.9597 19.2456 35.8147 0.103516 33.4859C0.747609 42.6173 10.409 48.2601 18.8332 44.469C34.4907 37.419 47.9055 24.4417 59.893 7.68732L61.7649 12.1934L65.1848 0L53.6327 5.43659Z" fill="url(#paint4_linear_436_382)"/>
<path d="M11.0066 30.873C22.9802 28.5809 34.3931 21.751 45.4492 12.065L45.9729 15.425L50.3565 7.62769L41.5291 9.46128L44.9303 11.0977C28.207 20.7288 12.9157 25.1522 0.135752 20.4171C-0.934647 26.7061 4.67683 32.0831 11.0066 30.873Z" fill="url(#paint5_linear_436_382)"/>
<path d="M141.657 41.3133C141.619 41.9127 141.435 42.4127 141.105 42.8137C140.779 43.2105 140.366 43.5061 139.864 43.7004C139.363 43.8946 138.83 43.9857 138.266 43.9732C137.744 43.9649 137.263 43.8657 136.824 43.6756C136.39 43.4813 136.047 43.196 135.796 42.8198C135.55 42.4438 135.443 41.9746 135.477 41.4125C135.506 40.9784 135.623 40.5982 135.828 40.2716C136.032 39.945 136.296 39.6742 136.617 39.4593C136.943 39.2444 137.3 39.0853 137.689 38.9819C138.082 38.8744 138.479 38.8248 138.88 38.8331C139.377 38.8413 139.843 38.9405 140.278 39.1307C140.712 39.3167 141.059 39.5917 141.318 39.9554C141.577 40.319 141.69 40.7718 141.657 41.3133ZM139.62 41.1458C139.645 40.9558 139.634 40.778 139.588 40.6127C139.542 40.4431 139.457 40.3046 139.331 40.1972C139.21 40.0897 139.043 40.0339 138.83 40.0298C138.592 40.0256 138.383 40.0794 138.203 40.1909C138.028 40.3026 137.886 40.4534 137.777 40.6436C137.668 40.8296 137.601 41.0302 137.576 41.245C137.555 41.4351 137.568 41.6151 137.614 41.7845C137.664 41.954 137.752 42.0925 137.877 42.2C138.007 42.3073 138.178 42.3631 138.391 42.3673C138.625 42.3714 138.83 42.3177 139.005 42.2061C139.181 42.0903 139.321 41.9395 139.425 41.7536C139.53 41.5633 139.595 41.3607 139.62 41.1458ZM142.214 37.1837C142.181 37.7252 142.003 38.1758 141.682 38.5355C141.364 38.895 140.967 39.1637 140.491 39.3415C140.019 39.5192 139.534 39.602 139.037 39.5895C138.577 39.5813 138.14 39.4903 137.727 39.3167C137.317 39.1431 136.987 38.8869 136.736 38.5478C136.49 38.2089 136.379 37.7873 136.404 37.2829C136.438 36.7125 136.605 36.2331 136.906 35.8444C137.211 35.456 137.599 35.1645 138.071 34.9702C138.548 34.7718 139.058 34.6788 139.601 34.6913C140.106 34.6994 140.562 34.8008 140.967 34.995C141.377 35.1893 141.694 35.4704 141.92 35.8383C142.146 36.2061 142.244 36.6548 142.214 37.1837ZM140.127 37.2954C140.144 37.1341 140.136 36.9772 140.102 36.8242C140.073 36.6712 140.006 36.5452 139.902 36.446C139.801 36.3468 139.655 36.2972 139.463 36.2972C139.254 36.2931 139.077 36.3446 138.93 36.4522C138.788 36.5556 138.675 36.6919 138.592 36.8613C138.512 37.0308 138.46 37.2085 138.435 37.3946C138.418 37.5557 138.425 37.7149 138.454 37.872C138.487 38.0292 138.554 38.1613 138.654 38.2688C138.755 38.3764 138.903 38.4302 139.099 38.4302C139.313 38.4341 139.49 38.3806 139.632 38.2688C139.778 38.1571 139.891 38.0147 139.971 37.8411C140.054 37.6633 140.106 37.4813 140.127 37.2954Z" fill="url(#paint6_linear_436_382)"/>
<path d="M150.752 36.6071L150.557 37.8163L146.057 45.6349H143.801L148.282 38.2193H144.095L144.359 36.6071H150.752Z" fill="url(#paint7_linear_436_382)"/>
<path opacity="0.6" d="M73.4082 40.0298H126.559" stroke="url(#paint8_linear_436_382)" stroke-width="0.5"/>
<path opacity="0.6" d="M158.85 40.0298H212" stroke="url(#paint9_linear_436_382)" stroke-width="0.5"/>
</g>
<defs>
<linearGradient id="paint0_linear_436_382" x1="74.2227" y1="18.0572" x2="1262.52" y2="18.0572" gradientUnits="userSpaceOnUse">
<stop stop-color="#589CFF"/>
<stop offset="1" stop-color="#0044A9"/>
</linearGradient>
<linearGradient id="paint1_linear_436_382" x1="0.13335" y1="20.8258" x2="10.7335" y2="20.8075" gradientUnits="userSpaceOnUse">
<stop stop-color="#589CFF"/>
<stop offset="1" stop-color="#0044A9"/>
</linearGradient>
<linearGradient id="paint2_linear_436_382" x1="0.243206" y1="34.0502" x2="15.0214" y2="30.4305" gradientUnits="userSpaceOnUse">
<stop stop-color="#589CFF"/>
<stop offset="1" stop-color="#0044A9"/>
</linearGradient>
<linearGradient id="paint3_linear_436_382" x1="4.49045" y1="25.0549" x2="60.5083" y2="25.0549" gradientUnits="userSpaceOnUse">
<stop stop-color="#589CFF"/>
<stop offset="1" stop-color="#0044A9"/>
</linearGradient>
<linearGradient id="paint4_linear_436_382" x1="0.105462" y1="22.8329" x2="65.1844" y2="22.8329" gradientUnits="userSpaceOnUse">
<stop stop-color="white"/>
<stop offset="1" stop-color="#589CFF"/>
</linearGradient>
<linearGradient id="paint5_linear_436_382" x1="0.00165065" y1="19.3358" x2="50.3547" y2="19.3358" gradientUnits="userSpaceOnUse">
<stop stop-color="white"/>
<stop offset="1" stop-color="#589CFF"/>
</linearGradient>
<linearGradient id="paint6_linear_436_382" x1="135.471" y1="39.333" x2="193.847" y2="39.333" gradientUnits="userSpaceOnUse">
<stop stop-color="#589CFF"/>
<stop offset="1" stop-color="#0044A9"/>
</linearGradient>
<linearGradient id="paint7_linear_436_382" x1="143.801" y1="41.1218" x2="203.926" y2="41.1218" gradientUnits="userSpaceOnUse">
<stop stop-color="#589CFF"/>
<stop offset="1" stop-color="#0044A9"/>
</linearGradient>
<linearGradient id="paint8_linear_436_382" x1="-nan" y1="-nan" x2="-nan" y2="-nan" gradientUnits="userSpaceOnUse">
<stop stop-color="#589CFF"/>
<stop offset="1" stop-color="#0044A9"/>
</linearGradient>
<linearGradient id="paint9_linear_436_382" x1="-nan" y1="-nan" x2="-nan" y2="-nan" gradientUnits="userSpaceOnUse">
<stop stop-color="#589CFF"/>
<stop offset="1" stop-color="#0044A9"/>
</linearGradient>
<clipPath id="clip0_436_382">
<rect width="212" height="50" fill="white"/>
</clipPath>
</defs>
</svg>
